<svg xmlns="http://www.w3.org/2000/svg" viewBox="0 0 512 512"><path fill="#ffffff" d="M256 0c-17.7 0-32 14.3-32 32V66.1C97.1 82.8 0 199.1 0 336c0 13.3 10.7 24 24 24h80L104 336c0-70.7 57.3-128 128-128c17.7 0 32-14.3 32-32s-14.3-32-32-32H24c-13.3 0-24-10.7-24-24S10.7 96 24 96H224V32c0-17.7 14.3-32 32-32s32 14.3 32 32V96H488c13.3 0 24 10.7 24 24s-10.7 24-24 24H256c-17.7 0-32 14.3-32 32s14.3 32 32 32c70.7 0 128 57.3 128 128c0 13.3 10.7 24 24 24H488c13.3 0 24-10.7 24-24C512 199.1 414.9 82.8 288 66.1V32c0-17.7-14.3-32-32-32zM128 368H384v80c0 35.3-28.7 64-64 64H192c-35.3 0-64-28.7-64-64V368z"/></svg>
